<svg width="21" height="25" xmlns="http://www.w3.org/2000/svg" fill="#AFB1B3">
    <path fill-rule="evenodd" clip-rule="evenodd"
          d="M5.262 2.163C5.262.977 6.23 0 7.405 0h6.19c.19 0 .371.076.505.211l6.19 6.25c.135.135.21.319.21.51v10.096c0 1.187-.968 2.164-2.143 2.164h-2.619v3.605c0 1.187-.968 2.164-2.143 2.164H2.643C1.468 25 .5 24.023.5 22.837V7.933c0-1.187.968-2.164 2.143-2.164h2.619V2.163zm0 5.049h-2.62a.707.707 0 00-.713.72v14.904c0 .408.31.722.714.722h10.952a.707.707 0 00.714-.721V19.23H7.405c-1.175 0-2.143-.977-2.143-2.164V7.212zm7.619-5.77H7.405a.707.707 0 00-.715.721v14.904c0 .407.312.721.715.721h10.952a.707.707 0 00.714-.72V7.691h-4.047c-1.175 0-2.143-.977-2.143-2.163V1.442zm5.18 4.808L14.31 2.462V5.53c0 .407.312.721.715.721h3.037z"
          />
</svg>