<svg width="23" height="23" fill="#AFB1B3" xmlns="http://www.w3.org/2000/svg">
    <path d="M11.5 0c-.903 0-1.774.115-2.605.309a.859.859 0 00-.66.747l-.182 1.669a1.724 1.724 0 01-.849 1.306 1.711 1.711 0 01-1.55.084h-.001L4.126 3.44a.856.856 0 00-.974.2A11.49 11.49 0 00.537 8.166a.866.866 0 00.314.945l1.355.997a1.727 1.727 0 010 2.784l-1.355.996a.862.862 0 00-.314.945 11.486 11.486 0 002.615 4.527.858.858 0 00.974.199l1.527-.675a1.712 1.712 0 011.551.085c.475.276.79.76.85 1.306l.182 1.67a.864.864 0 00.657.745c.832.195 1.704.31 2.607.31.903 0 1.774-.115 2.605-.309a.859.859 0 00.66-.747l.182-1.668c.06-.547.374-1.031.849-1.307a1.712 1.712 0 011.55-.085l1.528.675a.856.856 0 00.974-.199 11.492 11.492 0 002.615-4.527.865.865 0 00-.314-.945l-1.355-.996a1.725 1.725 0 01-.703-1.392c0-.55.26-1.066.703-1.392l1.355-.996a.863.863 0 00.314-.945 11.492 11.492 0 00-2.615-4.527.858.858 0 00-.974-.199l-1.528.675a1.712 1.712 0 01-1.55-.085 1.724 1.724 0 01-.85-1.306l-.182-1.67a.864.864 0 00-.657-.745A11.408 11.408 0 0011.5 0zm0 1.725c.558 0 1.094.1 1.631.195l.107.992a3.455 3.455 0 001.699 2.612c.947.55 2.1.613 3.102.171l.908-.401c.698.84 1.25 1.79 1.636 2.831l-.806.593a3.456 3.456 0 000 5.564l.806.593a9.705 9.705 0 01-1.636 2.831l-.908-.401a3.426 3.426 0 00-3.102.17 3.455 3.455 0 00-1.699 2.613l-.107.992c-.537.094-1.073.195-1.631.195s-1.094-.1-1.631-.195l-.107-.992a3.455 3.455 0 00-1.699-2.612 3.426 3.426 0 00-3.102-.171l-.908.401a9.698 9.698 0 01-1.636-2.831l.806-.593a3.456 3.456 0 000-5.565l-.806-.593a9.699 9.699 0 011.637-2.831l.907.4a3.426 3.426 0 003.102-.169 3.455 3.455 0 001.699-2.612l.107-.992c.537-.094 1.073-.195 1.631-.195zm0 5.175c-2.52 0-4.582 2.07-4.582 4.6s2.062 4.6 4.582 4.6 4.582-2.07 4.582-4.6S14.02 6.9 11.5 6.9zm0 1.725a2.856 2.856 0 012.864 2.875 2.856 2.856 0 01-2.864 2.875A2.857 2.857 0 018.636 11.5 2.856 2.856 0 0111.5 8.625z"/>
</svg>